<svg xmlns="http://www.w3.org/2000/svg" width="129" height="60" viewBox="0 0 129 60"><path d="M129 37.7c0 1.7-1.3 3-3 3H3c-1.7 0-3-1.3-3-3v-14c0-1.7 1.3-3 3-3h123c1.7 0 3 1.3 3 3v14z" fill="#4D4D4D"/><path d="M126 20.7H88.8l-7.9 20H126c1.7 0 3-1.3 3-3v-14c0-1.7-1.3-3-3-3z" fill="#C40000"/><g font-family="Verdana" font-size="11"><text transform="matrix(1 0 0 1 91.8652 35.7422)" fill="#1A1A1A">Jekyll</text><text transform="matrix(1 0 0 1 91.8652 34.7422)" fill="#FFF">Jekyll</text></g><path d="M84.3 6v.3s.3 2 0 2.9L69.7 47c-1 2.8.4 5.9 3.1 6.9 2.8 1.1 5.9-.3 7-3.1L94.3 13c.3-.7 1.9-2.2 1.9-2.2l.2-.2c.4-1-2-2.8-5.4-4.1-3.3-1.2-6.3-1.5-6.7-.5z" opacity=".1"/><path d="M84.9 6.7V7s.3 2 0 2.9L70.3 47.6c-1 2.8.4 5.9 3.1 6.9 2.8 1.1 5.9-.3 7-3.1l14.5-37.8c.3-.7 1.9-2.2 1.9-2.2l.2-.2c.4-1-2-2.8-5.4-4.1s-6.3-1.4-6.7-.4z" fill="#1A1A1A"/><linearGradient id="a" gradientUnits="userSpaceOnUse" x1="274.3955" y1="-329.5654" x2="283.596" y2="-338.766" gradientTransform="matrix(0.9138 -0.4062 -0.4062 -0.9138 -309.1371 -162.131)"><stop offset="0" stop-color="#919191"/><stop offset="1" stop-color="#FFF"/></linearGradient><path d="M83.9 5.7V6s.3 2 0 2.9L69.3 46.6c-1 2.8.4 5.9 3.1 6.9 2.8 1.1 5.9-.3 7-3.1l14.5-37.8c.3-.7 1.9-2.2 1.9-2.2l.2-.2c.4-1-2-2.8-5.4-4.1s-6.3-1.4-6.7-.4z" fill="url(#a)"/><linearGradient id="b" gradientUnits="userSpaceOnUse" x1="270.9355" y1="-336.585" x2="276.5058" y2="-342.1552" gradientTransform="matrix(0.9138 -0.4062 -0.4062 -0.9138 -309.1371 -162.131)"><stop offset="0" stop-color="#900"/><stop offset="1" stop-color="#E80000"/></linearGradient><path d="M88.4 22.8L78 50c-.8 2-3 3-5 2.2-2-.8-3.1-3.1-2.3-5l6.7-17.4s.8-1.3 2.5-2.3 3-.8 4.8-1.6 3.7-3.1 3.7-3.1z" fill="url(#b)"/><ellipse transform="matrix(0.359 -0.9333 0.9333 0.359 50.1036 89.126)" cx="89.9" cy="8.1" rx="1.1" ry="4" fill="#333"/><path d="M83.9 6s.3 2 0 2.9L69.3 46.6c-1 2.8.4 5.9 3.1 6.9.5.2 1 .3 1.5.3-1.9-1.4-2.7-3.9-1.8-6.2l14.2-37c0 .1-1.9-1.7-2.4-4.6z" opacity=".3" fill="#FFF"/><g fill="#FFF"><circle cx="79.2" cy="30.4" r=".4" opacity=".5"/><circle cx="82" cy="33.4" r=".6" opacity=".5"/><circle cx="77.8" cy="37" r="1.2" opacity=".5"/><circle cx="75.8" cy="39.2" r=".6" opacity=".5"/><circle cx="78.4" cy="43.9" r=".4" opacity=".5"/></g><text transform="matrix(1 0 0 1 5.5249 35.7422)"><tspan x="0" y="0" fill="#1A1A1A" font-family="Verdana" font-size="11">P</tspan><tspan x="6.4" y="0" fill="#1A1A1A" font-family="Verdana" font-size="11">owered </tspan><tspan x="50.6" y="0" fill="#1A1A1A" font-family="Verdana" font-size="11">b</tspan><tspan x="57.4" y="0" fill="#1A1A1A" font-family="Verdana" font-size="11">y</tspan></text><text transform="matrix(1 0 0 1 5.5249 34.7422)"><tspan x="0" y="0" fill="#FFF" font-family="Verdana" font-size="11">P</tspan><tspan x="6.4" y="0" fill="#FFF" font-family="Verdana" font-size="11">owered </tspan><tspan x="50.6" y="0" fill="#FFF" font-family="Verdana" font-size="11">b</tspan><tspan x="57.4" y="0" fill="#FFF" font-family="Verdana" font-size="11">y</tspan></text></svg>